<mxfile host="app.diagrams.net" agent="Mozilla/5.0 (Windows NT 10.0; Win64; x64) AppleWebKit/537.36 (KHTML, like Gecko) Chrome/131.0.0.0 Safari/537.36" version="25.0.3">
  <diagram name="Page-1" id="7FZMvqHeIF7b9mxZ489W">
    <mxGraphModel dx="1050" dy="522" grid="1" gridSize="10" guides="1" tooltips="1" connect="1" arrows="1" fold="1" page="1" pageScale="1" pageWidth="850" pageHeight="1100" math="0" shadow="0">
      <root>
        <mxCell id="0" />
        <mxCell id="1" parent="0" />
        <mxCell id="-MbyYuFJOytPRvi4rKHy-1" value="Catalog.API" style="rounded=0;whiteSpace=wrap;html=1;labelBackgroundColor=none;fillColor=#d5e8d4;strokeColor=#82b366;" parent="1" vertex="1">
          <mxGeometry x="240" y="40" width="320" height="60" as="geometry" />
        </mxCell>
        <mxCell id="0RgTeL44N1Eoh-r8Jxx3-1" value="Cross-cutting concerns" style="rounded=0;whiteSpace=wrap;html=1;labelBackgroundColor=none;fillColor=#d5e8d4;strokeColor=#82b366;rotation=90;" vertex="1" parent="1">
          <mxGeometry x="440" y="210" width="400" height="60" as="geometry" />
        </mxCell>
        <mxCell id="0RgTeL44N1Eoh-r8Jxx3-2" value="Catalog.Application" style="rounded=0;whiteSpace=wrap;html=1;labelBackgroundColor=none;fillColor=#d5e8d4;strokeColor=#82b366;" vertex="1" parent="1">
          <mxGeometry x="240" y="160" width="320" height="60" as="geometry" />
        </mxCell>
        <mxCell id="0RgTeL44N1Eoh-r8Jxx3-3" value="Catalog.Infrastructure" style="rounded=0;whiteSpace=wrap;html=1;labelBackgroundColor=none;fillColor=#d5e8d4;strokeColor=#82b366;" vertex="1" parent="1">
          <mxGeometry x="240" y="270" width="320" height="60" as="geometry" />
        </mxCell>
        <mxCell id="0RgTeL44N1Eoh-r8Jxx3-4" value="Catalog.Domain" style="rounded=0;whiteSpace=wrap;html=1;labelBackgroundColor=none;fillColor=#d5e8d4;strokeColor=#82b366;" vertex="1" parent="1">
          <mxGeometry x="240" y="380" width="320" height="60" as="geometry" />
        </mxCell>
        <mxCell id="0RgTeL44N1Eoh-r8Jxx3-6" value="Vertical scaling" style="rounded=0;whiteSpace=wrap;html=1;labelBackgroundColor=none;fillColor=#f8cecc;strokeColor=#b85450;rotation=90;" vertex="1" parent="1">
          <mxGeometry x="70" y="220" width="400" height="40" as="geometry" />
        </mxCell>
        <mxCell id="0RgTeL44N1Eoh-r8Jxx3-7" value="Vertical scaling" style="rounded=0;whiteSpace=wrap;html=1;labelBackgroundColor=none;fillColor=#dae8fc;strokeColor=#6c8ebf;rotation=90;" vertex="1" parent="1">
          <mxGeometry x="120" y="220" width="400" height="40" as="geometry" />
        </mxCell>
      </root>
    </mxGraphModel>
  </diagram>
</mxfile>
